<?xml version="1.0" standalone="no"?>
<!DOCTYPE svg PUBLIC "-//W3C//DTD SVG 20010904//EN"
 "http://www.w3.org/TR/2001/REC-SVG-20010904/DTD/svg10.dtd">
<svg version="1.0" xmlns="http://www.w3.org/2000/svg"
 width="226.000000pt" height="226.000000pt" viewBox="0 0 226.000000 226.000000"
 preserveAspectRatio="xMidYMid meet">
<metadata>
Created by potrace 1.14, written by Peter Selinger 2001-2017
</metadata>
<g transform="translate(0.000000,226.000000) scale(0.100000,-0.100000)"
fill="#000000" stroke="none">
<path d="M1095 2214 c-111 -18 -180 -59 -138 -83 16 -9 15 -11 -9 -20 -16 -6
-40 -16 -54 -21 -67 -26 -125 -93 -123 -142 1 -20 2 -19 9 6 20 65 104 122
224 152 71 18 78 34 15 34 -28 0 -39 4 -37 13 15 43 314 56 453 18 98 -26 228
-87 309 -145 75 -53 189 -172 246 -256 128 -189 201 -452 186 -675 -11 -171
-21 -175 -22 -8 -1 224 -37 400 -113 552 -56 110 -115 154 -90 67 14 -48 11
-67 -12 -73 -26 -7 -21 -31 26 -108 33 -56 41 -81 36 -115 -1 -8 -4 -73 -6
-145 -4 -162 -21 -228 -91 -362 -58 -111 -62 -123 -39 -123 20 0 35 -32 35
-73 0 -89 -71 -199 -230 -358 -99 -98 -154 -137 -238 -169 -91 -33 -111 -32
-46 3 175 95 453 390 470 499 7 42 -17 72 -53 65 -12 -2 -23 -1 -23 2 0 3 17
47 39 96 21 50 53 135 71 190 57 174 52 369 -11 448 -31 41 -47 35 -51 -20
l-3 -47 -34 67 c-86 170 -279 267 -505 255 -86 -5 -161 -31 -205 -71 -34 -32
-61 -95 -61 -148 0 -55 -18 -76 -49 -59 -29 15 -36 55 -23 119 7 30 10 57 7
59 -12 12 -58 -12 -76 -41 -15 -25 -19 -46 -17 -97 3 -60 1 -65 -19 -68 -38
-6 -56 36 -51 123 2 52 0 69 -7 57 -5 -9 -10 -44 -10 -77 0 -68 19 -108 62
-128 41 -19 56 11 49 99 -6 66 -5 71 19 94 32 31 38 23 25 -33 -10 -38 -9 -51
5 -81 18 -37 58 -57 76 -39 5 5 19 29 32 53 29 57 64 82 124 87 91 9 212 -44
286 -126 60 -67 90 -142 91 -229 1 -85 -24 -202 -57 -272 -19 -39 -29 -47 -73
-62 -39 -13 -60 -14 -90 -7 -21 5 -67 11 -101 14 -52 4 -71 0 -112 -20 -60
-30 -79 -31 -193 -4 -57 13 -93 18 -99 12 -6 -6 -31 -7 -64 -1 -49 7 -57 6
-91 -17 -21 -14 -48 -28 -61 -31 -27 -7 -93 3 -118 17 -5 4 -27 12 -48 19 -32
10 -43 9 -75 -6 -53 -25 -131 -44 -183 -44 -52 0 -64 10 -103 85 l-25 50 -1
-40 c0 -92 49 -260 105 -360 65 -117 225 -275 365 -360 86 -52 221 -109 325
-136 79 -21 112 -24 270 -24 199 1 255 11 421 79 320 131 577 431 660 772 23
94 27 130 27 264 0 135 -3 168 -26 252 -109 412 -384 693 -767 784 -64 15
-277 27 -335 18z m465 -1135 c-13 -124 -38 -205 -88 -288 -69 -114 -236 -261
-296 -261 -20 0 -20 0 0 15 28 21 12 18 -59 -11 -34 -14 -84 -28 -112 -30 -27
-3 -77 -18 -110 -34 -94 -44 -153 -54 -233 -40 -85 14 -223 60 -304 101 -79
40 -236 146 -247 168 -9 17 -41 151 -41 171 0 6 26 -22 58 -62 103 -128 240
-241 338 -277 131 -49 365 -48 567 3 131 34 202 72 281 154 136 140 184 223
225 394 14 58 27 105 29 103 2 -1 -2 -49 -8 -106z m185 -74 c-12 -18 -36 -75
-54 -127 -76 -218 -173 -367 -311 -479 -49 -40 -50 -60 -1 -35 105 55 233 204
302 352 23 49 44 84 46 77 2 -7 0 -21 -6 -32 -29 -53 2 -33 40 27 37 58 38 44
2 -17 -15 -25 -34 -58 -43 -73 -123 -219 -237 -332 -426 -420 -35 -16 -64 -32
-64 -35 0 -7 78 3 105 13 18 7 19 6 6 -10 -18 -22 -100 -64 -160 -82 -123 -36
-436 -49 -501 -21 l-35 15 81 1 c143 2 324 41 324 71 0 6 -18 10 -40 10 -22 0
-40 3 -40 8 0 4 12 25 26 46 48 71 51 152 3 85 -26 -36 -110 -79 -156 -79 -36
0 -38 2 -22 32 10 19 9 20 -12 14 -147 -40 -312 -29 -449 31 -48 21 -120 76
-120 93 0 3 46 -17 103 -45 l102 -50 135 0 c150 0 169 4 300 70 l85 42 146 5
c128 4 152 8 200 30 68 31 120 76 176 152 24 32 43 55 43 51 0 -4 -21 -47 -46
-96 -52 -101 -106 -156 -210 -214 -84 -47 -75 -59 11 -15 166 84 306 326 322
557 3 45 10 80 14 77 4 -2 11 -31 15 -64 4 -36 11 -60 18 -60 7 0 23 19 36 43
50 91 63 109 70 97 4 -7 -2 -27 -15 -45z m-301 -129 c-14 -36 -218 -73 -341
-62 -40 3 -103 13 -140 23 -50 12 -68 13 -71 4 -2 -6 -17 -18 -33 -26 -18 -10
-26 -20 -23 -30 4 -9 -3 -19 -20 -26 -20 -10 -30 -9 -48 3 -15 10 -32 12 -50
7 -18 -4 -33 -2 -45 7 -17 13 -17 13 2 14 31 0 128 48 146 72 l16 21 104 -21
c199 -39 302 -37 432 7 66 23 78 24 71 7z m-815 -100 c117 -65 147 -74 281
-83 l105 -6 -50 -24 c-41 -20 -59 -23 -100 -17 -27 3 -59 6 -70 5 -11 0 -36
-1 -55 -1 -25 0 -44 -9 -67 -32 -34 -33 -40 -28 -24 15 14 37 3 67 -24 67 -16
0 -25 7 -29 25 -8 33 -16 31 -45 -11 -13 -19 -33 -40 -44 -46 -18 -9 -19 -8
-13 13 4 13 10 35 13 49 l6 24 -32 -26 c-79 -67 -208 -63 -271 8 -17 20 -30
38 -28 40 2 2 26 -3 53 -11 94 -29 193 -15 248 35 18 16 36 30 41 30 4 0 51
-24 105 -54z m649 -32 c60 -6 62 -7 47 -24 -9 -10 -34 -21 -55 -25 -26 -4 -40
-13 -43 -26 -3 -11 -14 -19 -25 -19 -11 0 -25 -7 -32 -15 -8 -9 -20 -13 -29
-9 -9 4 -26 6 -38 5 -17 0 -23 5 -23 20 0 19 -1 19 -33 -5 -69 -52 -202 -97
-285 -95 -34 1 -31 3 33 23 169 55 230 89 273 153 l24 35 62 -6 c33 -4 89 -9
124 -12z m-374 -494 c-10 -11 -46 -29 -79 -41 -52 -18 -73 -20 -155 -14 -89 6
-169 29 -183 52 -3 5 44 4 111 -4 124 -14 186 -11 249 12 21 7 47 14 58 14 19
1 19 1 -1 -19z"/>
<path d="M950 1996 c-14 -8 -40 -32 -58 -55 -36 -44 -74 -60 -97 -41 -12 10
-15 10 -15 0 0 -6 9 -14 20 -17 24 -6 27 -23 4 -23 -30 0 -120 -103 -142 -163
-37 -98 -22 -191 26 -161 22 14 29 30 44 98 11 51 18 61 47 77 45 24 54 16 36
-28 -20 -48 -19 -54 5 -18 37 56 18 89 -39 65 -44 -18 -63 -45 -72 -102 -8
-51 -31 -89 -46 -75 -12 13 -6 101 11 141 40 95 118 156 254 197 53 15 67 31
53 58 -14 25 0 35 35 27 28 -7 32 -40 9 -74 -13 -17 -13 -21 -2 -16 22 8 40
49 32 73 -6 19 -52 52 -72 51 -4 -1 -19 -7 -33 -14z m20 -61 c0 -14 -79 -50
-88 -40 -3 3 9 21 28 40 26 26 37 32 47 24 7 -6 13 -17 13 -24z"/>
</g>
</svg>
